<mxfile host="app.diagrams.net" agent="Mozilla/5.0 (Windows NT 10.0; Win64; x64) AppleWebKit/537.36 (KHTML, like Gecko) Chrome/131.0.0.0 Safari/537.36" version="26.0.2">
  <diagram name="Page-1" id="_dbiNvgFxBLvJ_iSfBZv">
    <mxGraphModel dx="-533" dy="60" grid="1" gridSize="10" guides="1" tooltips="1" connect="1" arrows="1" fold="1" page="1" pageScale="1" pageWidth="850" pageHeight="1100" math="0" shadow="0">
      <root>
        <mxCell id="0" />
        <mxCell id="1" parent="0" />
        <mxCell id="_S31PFsr-5n91dySAx23-71" value="" style="edgeStyle=orthogonalEdgeStyle;rounded=0;orthogonalLoop=1;jettySize=auto;html=1;" edge="1" parent="1" source="_S31PFsr-5n91dySAx23-7" target="_S31PFsr-5n91dySAx23-66">
          <mxGeometry relative="1" as="geometry" />
        </mxCell>
        <mxCell id="_S31PFsr-5n91dySAx23-7" value="IMPORT FORCAST INFORMATION" style="rounded=0;whiteSpace=wrap;html=1;gradientColor=default;gradientDirection=west;fillColor=none;" vertex="1" parent="1">
          <mxGeometry x="5015" y="2320" width="175" height="40" as="geometry" />
        </mxCell>
        <mxCell id="_S31PFsr-5n91dySAx23-8" value="" style="edgeStyle=orthogonalEdgeStyle;rounded=0;orthogonalLoop=1;jettySize=auto;html=1;" edge="1" parent="1" source="_S31PFsr-5n91dySAx23-9" target="_S31PFsr-5n91dySAx23-12">
          <mxGeometry relative="1" as="geometry" />
        </mxCell>
        <mxCell id="_S31PFsr-5n91dySAx23-9" value="" style="whiteSpace=wrap;html=1;fillColor=none;rounded=0;gradientColor=default;gradientDirection=west;" vertex="1" parent="1">
          <mxGeometry x="4600" y="2668.95" width="120" height="60" as="geometry" />
        </mxCell>
        <mxCell id="_S31PFsr-5n91dySAx23-10" value="" style="edgeStyle=orthogonalEdgeStyle;rounded=0;orthogonalLoop=1;jettySize=auto;html=1;" edge="1" parent="1" source="_S31PFsr-5n91dySAx23-12" target="_S31PFsr-5n91dySAx23-14">
          <mxGeometry relative="1" as="geometry" />
        </mxCell>
        <mxCell id="_S31PFsr-5n91dySAx23-11" value="" style="edgeStyle=orthogonalEdgeStyle;rounded=0;orthogonalLoop=1;jettySize=auto;html=1;" edge="1" parent="1" source="_S31PFsr-5n91dySAx23-12" target="_S31PFsr-5n91dySAx23-19">
          <mxGeometry relative="1" as="geometry" />
        </mxCell>
        <mxCell id="_S31PFsr-5n91dySAx23-12" value="&lt;div&gt;&lt;br&gt;&lt;/div&gt;IS DATA&amp;nbsp;&lt;div&gt;COMPLETE&amp;nbsp;&lt;div&gt;AND VALID&amp;nbsp;&lt;/div&gt;&lt;div&gt;?&lt;/div&gt;&lt;/div&gt;" style="rhombus;whiteSpace=wrap;html=1;fillColor=none;rounded=0;gradientColor=default;gradientDirection=west;" vertex="1" parent="1">
          <mxGeometry x="4769" y="2638.95" width="121.5" height="120" as="geometry" />
        </mxCell>
        <mxCell id="_S31PFsr-5n91dySAx23-13" style="edgeStyle=orthogonalEdgeStyle;rounded=0;orthogonalLoop=1;jettySize=auto;html=1;entryX=0.5;entryY=0;entryDx=0;entryDy=0;" edge="1" parent="1" source="_S31PFsr-5n91dySAx23-14" target="_S31PFsr-5n91dySAx23-9">
          <mxGeometry relative="1" as="geometry">
            <Array as="points">
              <mxPoint x="4991.5" y="2618.95" />
              <mxPoint x="4660.5" y="2618.95" />
            </Array>
          </mxGeometry>
        </mxCell>
        <mxCell id="_S31PFsr-5n91dySAx23-14" value="&lt;div&gt;&lt;br&gt;&lt;/div&gt;INPUT DATA MANUALLY" style="shape=manualInput;whiteSpace=wrap;html=1;size=20;" vertex="1" parent="1">
          <mxGeometry x="4926" y="2671.95" width="131.5" height="55" as="geometry" />
        </mxCell>
        <mxCell id="_S31PFsr-5n91dySAx23-15" value="" style="edgeStyle=orthogonalEdgeStyle;rounded=0;orthogonalLoop=1;jettySize=auto;html=1;" edge="1" parent="1" source="_S31PFsr-5n91dySAx23-17">
          <mxGeometry relative="1" as="geometry">
            <mxPoint x="4660.023809523809" y="2887.95" as="targetPoint" />
          </mxGeometry>
        </mxCell>
        <mxCell id="_S31PFsr-5n91dySAx23-16" style="edgeStyle=orthogonalEdgeStyle;rounded=0;orthogonalLoop=1;jettySize=auto;html=1;entryX=0.5;entryY=1;entryDx=0;entryDy=0;" edge="1" parent="1" source="_S31PFsr-5n91dySAx23-17" target="_S31PFsr-5n91dySAx23-9">
          <mxGeometry relative="1" as="geometry" />
        </mxCell>
        <mxCell id="_S31PFsr-5n91dySAx23-17" value="IS&amp;nbsp;&lt;div&gt;APPROVED&lt;/div&gt;&lt;div&gt;?&lt;/div&gt;" style="rhombus;whiteSpace=wrap;html=1;" vertex="1" parent="1">
          <mxGeometry x="4616" y="2761.95" width="88" height="90" as="geometry" />
        </mxCell>
        <mxCell id="_S31PFsr-5n91dySAx23-18" value="" style="edgeStyle=orthogonalEdgeStyle;rounded=0;orthogonalLoop=1;jettySize=auto;html=1;" edge="1" parent="1" source="_S31PFsr-5n91dySAx23-19" target="_S31PFsr-5n91dySAx23-17">
          <mxGeometry relative="1" as="geometry" />
        </mxCell>
        <mxCell id="_S31PFsr-5n91dySAx23-19" value="SEND FOR APPROVAL" style="whiteSpace=wrap;html=1;fillColor=none;rounded=0;gradientColor=default;gradientDirection=west;" vertex="1" parent="1">
          <mxGeometry x="4780.25" y="2781.95" width="99" height="50" as="geometry" />
        </mxCell>
        <mxCell id="_S31PFsr-5n91dySAx23-20" value="" style="edgeStyle=orthogonalEdgeStyle;rounded=0;orthogonalLoop=1;jettySize=auto;html=1;" edge="1" parent="1" source="_S31PFsr-5n91dySAx23-21" target="_S31PFsr-5n91dySAx23-30">
          <mxGeometry relative="1" as="geometry" />
        </mxCell>
        <mxCell id="_S31PFsr-5n91dySAx23-21" value="IMPORT&amp;nbsp;&lt;div&gt;APPROVED DATA&lt;/div&gt;" style="whiteSpace=wrap;html=1;" vertex="1" parent="1">
          <mxGeometry x="4370.5" y="2769" width="120" height="60" as="geometry" />
        </mxCell>
        <mxCell id="_S31PFsr-5n91dySAx23-22" value="NO" style="text;html=1;align=center;verticalAlign=middle;whiteSpace=wrap;rounded=0;" vertex="1" parent="1">
          <mxGeometry x="4879.25" y="2678.95" width="40" height="20" as="geometry" />
        </mxCell>
        <mxCell id="_S31PFsr-5n91dySAx23-23" value="YES" style="text;html=1;align=center;verticalAlign=middle;whiteSpace=wrap;rounded=0;" vertex="1" parent="1">
          <mxGeometry x="4789" y="2758.95" width="40" height="20" as="geometry" />
        </mxCell>
        <mxCell id="_S31PFsr-5n91dySAx23-24" value="YES" style="text;html=1;align=center;verticalAlign=middle;whiteSpace=wrap;rounded=0;" vertex="1" parent="1">
          <mxGeometry x="4623" y="2851.95" width="40" height="20" as="geometry" />
        </mxCell>
        <mxCell id="_S31PFsr-5n91dySAx23-25" value="" style="edgeStyle=orthogonalEdgeStyle;rounded=0;orthogonalLoop=1;jettySize=auto;html=1;" edge="1" parent="1" source="_S31PFsr-5n91dySAx23-27" target="_S31PFsr-5n91dySAx23-38">
          <mxGeometry relative="1" as="geometry" />
        </mxCell>
        <mxCell id="_S31PFsr-5n91dySAx23-26" value="" style="edgeStyle=orthogonalEdgeStyle;rounded=0;orthogonalLoop=1;jettySize=auto;html=1;" edge="1" parent="1" source="_S31PFsr-5n91dySAx23-27" target="_S31PFsr-5n91dySAx23-53">
          <mxGeometry relative="1" as="geometry" />
        </mxCell>
        <mxCell id="_S31PFsr-5n91dySAx23-27" value="SCHEDULE A&amp;nbsp; SERVICE" style="whiteSpace=wrap;html=1;fillColor=none;rounded=0;gradientColor=default;gradientDirection=west;" vertex="1" parent="1">
          <mxGeometry x="4370.87" y="3088" width="120" height="60" as="geometry" />
        </mxCell>
        <mxCell id="_S31PFsr-5n91dySAx23-28" value="" style="edgeStyle=orthogonalEdgeStyle;rounded=0;orthogonalLoop=1;jettySize=auto;html=1;" edge="1" parent="1" source="_S31PFsr-5n91dySAx23-30" target="_S31PFsr-5n91dySAx23-32">
          <mxGeometry relative="1" as="geometry" />
        </mxCell>
        <mxCell id="_S31PFsr-5n91dySAx23-29" value="" style="edgeStyle=orthogonalEdgeStyle;rounded=0;orthogonalLoop=1;jettySize=auto;html=1;entryX=0.5;entryY=0;entryDx=0;entryDy=0;" edge="1" parent="1" source="_S31PFsr-5n91dySAx23-30" target="_S31PFsr-5n91dySAx23-36">
          <mxGeometry relative="1" as="geometry" />
        </mxCell>
        <mxCell id="_S31PFsr-5n91dySAx23-30" value="IS DATA COMPLETE&amp;nbsp;&lt;div&gt;OR VALID ?&lt;/div&gt;" style="rhombus;whiteSpace=wrap;html=1;fillColor=none;rounded=0;gradientColor=default;gradientDirection=west;" vertex="1" parent="1">
          <mxGeometry x="4380" y="2870" width="102.5" height="90" as="geometry" />
        </mxCell>
        <mxCell id="_S31PFsr-5n91dySAx23-31" style="edgeStyle=orthogonalEdgeStyle;rounded=0;orthogonalLoop=1;jettySize=auto;html=1;entryX=0.5;entryY=0;entryDx=0;entryDy=0;" edge="1" parent="1" source="_S31PFsr-5n91dySAx23-32" target="_S31PFsr-5n91dySAx23-30">
          <mxGeometry relative="1" as="geometry">
            <Array as="points">
              <mxPoint x="4572" y="2850" />
              <mxPoint x="4431" y="2850" />
            </Array>
          </mxGeometry>
        </mxCell>
        <mxCell id="_S31PFsr-5n91dySAx23-32" value="&lt;div&gt;&lt;br&gt;&lt;/div&gt;INPUT DATA MANUALLY" style="shape=manualInput;whiteSpace=wrap;html=1;size=20;" vertex="1" parent="1">
          <mxGeometry x="4506" y="2887" width="131.5" height="55" as="geometry" />
        </mxCell>
        <mxCell id="_S31PFsr-5n91dySAx23-33" value="YES" style="text;html=1;align=center;verticalAlign=middle;whiteSpace=wrap;rounded=0;" vertex="1" parent="1">
          <mxGeometry x="4390.5" y="2960" width="40" height="20" as="geometry" />
        </mxCell>
        <mxCell id="_S31PFsr-5n91dySAx23-34" value="NO" style="text;html=1;align=center;verticalAlign=middle;whiteSpace=wrap;rounded=0;" vertex="1" parent="1">
          <mxGeometry x="4469.5" y="2890" width="40" height="20" as="geometry" />
        </mxCell>
        <mxCell id="_S31PFsr-5n91dySAx23-35" value="" style="edgeStyle=orthogonalEdgeStyle;rounded=0;orthogonalLoop=1;jettySize=auto;html=1;" edge="1" parent="1" source="_S31PFsr-5n91dySAx23-36" target="_S31PFsr-5n91dySAx23-27">
          <mxGeometry relative="1" as="geometry" />
        </mxCell>
        <mxCell id="_S31PFsr-5n91dySAx23-36" value="GERATE&amp;nbsp;&lt;div&gt;A&amp;nbsp;&amp;nbsp;&lt;span style=&quot;background-color: transparent; color: light-dark(rgb(0, 0, 0), rgb(255, 255, 255));&quot;&gt;SRO&amp;nbsp;&lt;/span&gt;&lt;/div&gt;&lt;div&gt;&lt;span style=&quot;background-color: transparent; color: light-dark(rgb(0, 0, 0), rgb(255, 255, 255));&quot;&gt;NUMBER&lt;/span&gt;&lt;/div&gt;" style="shape=hexagon;perimeter=hexagonPerimeter2;whiteSpace=wrap;html=1;fixedSize=1;" vertex="1" parent="1">
          <mxGeometry x="4380.5" y="2990" width="101" height="70" as="geometry" />
        </mxCell>
        <mxCell id="_S31PFsr-5n91dySAx23-37" value="" style="edgeStyle=orthogonalEdgeStyle;rounded=0;orthogonalLoop=1;jettySize=auto;html=1;" edge="1" parent="1" source="_S31PFsr-5n91dySAx23-38" target="_S31PFsr-5n91dySAx23-41">
          <mxGeometry relative="1" as="geometry" />
        </mxCell>
        <mxCell id="_S31PFsr-5n91dySAx23-38" value="IMPORT&amp;nbsp;&lt;br&gt;&lt;div&gt;&lt;span style=&quot;background-color: transparent; color: light-dark(rgb(0, 0, 0), rgb(255, 255, 255));&quot;&gt;SCHEDULE&lt;/span&gt;&amp;nbsp;DATA&lt;/div&gt;" style="whiteSpace=wrap;html=1;" vertex="1" parent="1">
          <mxGeometry x="4370.87" y="3180" width="120" height="60" as="geometry" />
        </mxCell>
        <mxCell id="_S31PFsr-5n91dySAx23-39" value="" style="edgeStyle=orthogonalEdgeStyle;rounded=0;orthogonalLoop=1;jettySize=auto;html=1;" edge="1" parent="1" source="_S31PFsr-5n91dySAx23-41" target="_S31PFsr-5n91dySAx23-43">
          <mxGeometry relative="1" as="geometry" />
        </mxCell>
        <mxCell id="_S31PFsr-5n91dySAx23-40" value="" style="edgeStyle=orthogonalEdgeStyle;rounded=0;orthogonalLoop=1;jettySize=auto;html=1;" edge="1" parent="1" source="_S31PFsr-5n91dySAx23-41" target="_S31PFsr-5n91dySAx23-47">
          <mxGeometry relative="1" as="geometry" />
        </mxCell>
        <mxCell id="_S31PFsr-5n91dySAx23-41" value="IS DATA COMPLETE&amp;nbsp;&lt;div&gt;AND VALID&amp;nbsp;&lt;/div&gt;&lt;div&gt;?&lt;/div&gt;" style="rhombus;whiteSpace=wrap;html=1;fillColor=none;rounded=0;gradientColor=default;gradientDirection=west;" vertex="1" parent="1">
          <mxGeometry x="4375.25" y="3276" width="111.75" height="110" as="geometry" />
        </mxCell>
        <mxCell id="_S31PFsr-5n91dySAx23-42" style="edgeStyle=orthogonalEdgeStyle;rounded=0;orthogonalLoop=1;jettySize=auto;html=1;entryX=0.5;entryY=0;entryDx=0;entryDy=0;" edge="1" parent="1" source="_S31PFsr-5n91dySAx23-43" target="_S31PFsr-5n91dySAx23-41">
          <mxGeometry relative="1" as="geometry">
            <Array as="points">
              <mxPoint x="4578" y="3260" />
              <mxPoint x="4431" y="3260" />
            </Array>
          </mxGeometry>
        </mxCell>
        <mxCell id="_S31PFsr-5n91dySAx23-43" value="&lt;div&gt;&lt;br&gt;&lt;/div&gt;INPUT DATA MANUALLY" style="shape=manualInput;whiteSpace=wrap;html=1;size=20;" vertex="1" parent="1">
          <mxGeometry x="4512" y="3304" width="131.5" height="55" as="geometry" />
        </mxCell>
        <mxCell id="_S31PFsr-5n91dySAx23-44" value="YES" style="text;html=1;align=center;verticalAlign=middle;whiteSpace=wrap;rounded=0;" vertex="1" parent="1">
          <mxGeometry x="4390.5" y="3386" width="40" height="20" as="geometry" />
        </mxCell>
        <mxCell id="_S31PFsr-5n91dySAx23-45" value="NO" style="text;html=1;align=center;verticalAlign=middle;whiteSpace=wrap;rounded=0;" vertex="1" parent="1">
          <mxGeometry x="4475.25" y="3307.5" width="40" height="20" as="geometry" />
        </mxCell>
        <mxCell id="_S31PFsr-5n91dySAx23-46" value="" style="edgeStyle=orthogonalEdgeStyle;rounded=0;orthogonalLoop=1;jettySize=auto;html=1;" edge="1" parent="1" source="_S31PFsr-5n91dySAx23-47" target="_S31PFsr-5n91dySAx23-52">
          <mxGeometry relative="1" as="geometry" />
        </mxCell>
        <mxCell id="_S31PFsr-5n91dySAx23-47" value="ASSIGN COST CENTER" style="whiteSpace=wrap;html=1;fillColor=none;rounded=0;gradientColor=default;gradientDirection=west;" vertex="1" parent="1">
          <mxGeometry x="4341.25" y="3420" width="180.5" height="40" as="geometry" />
        </mxCell>
        <mxCell id="_S31PFsr-5n91dySAx23-48" value="NO" style="text;html=1;align=center;verticalAlign=middle;whiteSpace=wrap;rounded=0;" vertex="1" parent="1">
          <mxGeometry x="4656" y="2745.95" width="40" height="20" as="geometry" />
        </mxCell>
        <mxCell id="_S31PFsr-5n91dySAx23-49" value="" style="group" vertex="1" connectable="0" parent="1">
          <mxGeometry x="3640" y="2619" width="540" height="529" as="geometry" />
        </mxCell>
        <mxCell id="_S31PFsr-5n91dySAx23-50" value="&lt;ol&gt;&lt;li&gt;&lt;div style=&quot;background-color: transparent; color: light-dark(rgb(0, 0, 0), rgb(255, 255, 255)); display: inline !important;&quot;&gt;&lt;span style=&quot;background-color: transparent; color: light-dark(rgb(0, 0, 0), rgb(255, 255, 255));&quot;&gt;&lt;b&gt;RETRIEVE DATA&lt;br&gt;&lt;/b&gt;&lt;/span&gt;&lt;/div&gt;1.1. IMPORT FORECAST DATA.&lt;br&gt;&lt;span style=&quot;background-color: transparent; color: light-dark(rgb(0, 0, 0), rgb(255, 255, 255));&quot;&gt;1.2. IF FORECAST DATA DOES NOT EXIST, PROCEED TO STEP 2.&lt;/span&gt;&lt;/li&gt;&lt;li&gt;&lt;p&gt;&lt;/p&gt;&lt;div style=&quot;&quot;&gt;&lt;strong style=&quot;background-color: transparent; color: light-dark(rgb(0, 0, 0), rgb(255, 255, 255));&quot;&gt;INPUT DATA&lt;/strong&gt;&lt;/div&gt;&lt;div style=&quot;&quot;&gt;&lt;span style=&quot;background-color: transparent; color: light-dark(rgb(0, 0, 0), rgb(255, 255, 255));&quot;&gt;2.1. MANUALLY INPUT DATA INTO THE SRO FORM.&lt;/span&gt;&lt;/div&gt;&lt;p&gt;&lt;/p&gt;&lt;/li&gt;&lt;li&gt;&lt;p&gt;&lt;/p&gt;&lt;div style=&quot;&quot;&gt;&lt;strong style=&quot;background-color: transparent; color: light-dark(rgb(0, 0, 0), rgb(255, 255, 255));&quot;&gt;APPROVAL&lt;/strong&gt;&lt;/div&gt;&lt;div style=&quot;&quot;&gt;&lt;span style=&quot;background-color: transparent; color: light-dark(rgb(0, 0, 0), rgb(255, 255, 255));&quot;&gt;3.1. SUBMIT THE SRO DOCUMENT FOR APPROVAL.&lt;/span&gt;&lt;/div&gt;&lt;div style=&quot;&quot;&gt;&lt;span style=&quot;background-color: transparent; color: light-dark(rgb(0, 0, 0), rgb(255, 255, 255));&quot;&gt;3.2. IF APPROVED, PROCEED TO STEP 4.&lt;/span&gt;&lt;/div&gt;&lt;p&gt;&lt;/p&gt;&lt;/li&gt;&lt;li&gt;&lt;p&gt;&lt;/p&gt;&lt;div style=&quot;&quot;&gt;&lt;strong style=&quot;background-color: transparent; color: light-dark(rgb(0, 0, 0), rgb(255, 255, 255));&quot;&gt;DATA IMPORT&lt;/strong&gt;&lt;/div&gt;&lt;div style=&quot;&quot;&gt;&lt;span style=&quot;background-color: transparent; color: light-dark(rgb(0, 0, 0), rgb(255, 255, 255));&quot;&gt;4.1. IMPORT APPROVED DATA INTO THE SCHEDULING SERVICE.&lt;/span&gt;&lt;/div&gt;&lt;p&gt;&lt;/p&gt;&lt;/li&gt;&lt;li&gt;&lt;p&gt;&lt;/p&gt;&lt;div style=&quot;&quot;&gt;&lt;strong style=&quot;background-color: transparent; color: light-dark(rgb(0, 0, 0), rgb(255, 255, 255));&quot;&gt;ADD ADDITIONAL DETAILS&lt;/strong&gt;&lt;/div&gt;&lt;div style=&quot;&quot;&gt;&lt;span style=&quot;background-color: transparent; color: light-dark(rgb(0, 0, 0), rgb(255, 255, 255));&quot;&gt;5.1. INPUT ANY NECESSARY DETAILS THAT WERE NOT IMPORTED DURING STEP 4.&lt;/span&gt;&lt;/div&gt;&lt;p&gt;&lt;/p&gt;&lt;/li&gt;&lt;li&gt;&lt;p&gt;&lt;/p&gt;&lt;div style=&quot;&quot;&gt;&lt;strong style=&quot;background-color: transparent; color: light-dark(rgb(0, 0, 0), rgb(255, 255, 255));&quot;&gt;VALIDATION&lt;/strong&gt;&lt;/div&gt;&lt;div style=&quot;&quot;&gt;&lt;span style=&quot;background-color: transparent; color: light-dark(rgb(0, 0, 0), rgb(255, 255, 255));&quot;&gt;6.1. VERIFY ALL DATA.&lt;/span&gt;&lt;/div&gt;&lt;div style=&quot;&quot;&gt;&lt;span style=&quot;background-color: transparent; color: light-dark(rgb(0, 0, 0), rgb(255, 255, 255));&quot;&gt;6.2. IF THE DATA IS CORRECT, GENERATE AN SRO NUMBER.&lt;/span&gt;&lt;/div&gt;&lt;div style=&quot;&quot;&gt;&lt;span style=&quot;background-color: transparent; color: light-dark(rgb(0, 0, 0), rgb(255, 255, 255));&quot;&gt;6.3. IF INCORRECT, RETURN TO STEP 2 TO AMEND THE DATA.&lt;/span&gt;&lt;/div&gt;&lt;p&gt;&lt;/p&gt;&lt;/li&gt;&lt;li&gt;&lt;p&gt;&lt;/p&gt;&lt;div style=&quot;&quot;&gt;&lt;strong style=&quot;background-color: transparent; color: light-dark(rgb(0, 0, 0), rgb(255, 255, 255));&quot;&gt;ASSIGN A SERVICE&lt;/strong&gt;&lt;/div&gt;&lt;div style=&quot;&quot;&gt;&lt;span style=&quot;background-color: transparent; color: light-dark(rgb(0, 0, 0), rgb(255, 255, 255));&quot;&gt;7.1. INPUT DATA TO ASSIGN A SERVICE.&lt;/span&gt;&lt;/div&gt;&lt;p&gt;&lt;/p&gt;&lt;/li&gt;&lt;li&gt;&lt;p&gt;&lt;/p&gt;&lt;div style=&quot;&quot;&gt;&lt;strong style=&quot;background-color: transparent; color: light-dark(rgb(0, 0, 0), rgb(255, 255, 255));&quot;&gt;DATA IMPORT FOR SERVICE ASSIGNMENT&lt;/strong&gt;&lt;/div&gt;&lt;div style=&quot;&quot;&gt;&lt;span style=&quot;background-color: transparent; color: light-dark(rgb(0, 0, 0), rgb(255, 255, 255));&quot;&gt;8.1. IMPORT THE REQUIRED DATA NEEDED FOR ASSIGNING THE SERVICE.&lt;/span&gt;&lt;/div&gt;&lt;p&gt;&lt;/p&gt;&lt;/li&gt;&lt;li&gt;&lt;p&gt;&lt;/p&gt;&lt;div style=&quot;&quot;&gt;&lt;strong style=&quot;background-color: transparent; color: light-dark(rgb(0, 0, 0), rgb(255, 255, 255));&quot;&gt;FINALIZE ASSIGNMENT&lt;/strong&gt;&lt;/div&gt;&lt;div style=&quot;&quot;&gt;&lt;span style=&quot;background-color: transparent; color: light-dark(rgb(0, 0, 0), rgb(255, 255, 255));&quot;&gt;9.1. ASSIGN THE SRO.&lt;/span&gt;&lt;/div&gt;&lt;p&gt;&lt;/p&gt;&lt;/li&gt;&lt;/ol&gt;" style="shape=note;whiteSpace=wrap;html=1;backgroundOutline=1;darkOpacity=0.05;size=40;align=left;" vertex="1" parent="_S31PFsr-5n91dySAx23-49">
          <mxGeometry width="540" height="529" as="geometry" />
        </mxCell>
        <mxCell id="_S31PFsr-5n91dySAx23-51" value="&lt;h1 style=&quot;margin-top: 0px;&quot;&gt;OPERATION CENTER&lt;/h1&gt;" style="text;html=1;whiteSpace=wrap;overflow=hidden;rounded=0;" vertex="1" parent="_S31PFsr-5n91dySAx23-49">
          <mxGeometry x="26.5" y="10" width="279.5" height="40" as="geometry" />
        </mxCell>
        <mxCell id="_S31PFsr-5n91dySAx23-52" value="" style="ellipse;whiteSpace=wrap;html=1;aspect=fixed;" vertex="1" parent="1">
          <mxGeometry x="4411.5" y="3502" width="40" height="40" as="geometry" />
        </mxCell>
        <mxCell id="_S31PFsr-5n91dySAx23-53" value="&lt;div&gt;SRO&lt;/div&gt;&lt;div&gt;Front Sheet&lt;/div&gt;" style="shape=document;whiteSpace=wrap;html=1;boundedLbl=1;" vertex="1" parent="1">
          <mxGeometry x="4541" y="3078" width="120" height="80" as="geometry" />
        </mxCell>
        <mxCell id="_S31PFsr-5n91dySAx23-54" value="&lt;ul&gt;&lt;li&gt;CLIENT&lt;/li&gt;&lt;li&gt;CUSTOMER&lt;/li&gt;&lt;li&gt;CLUSTER&lt;/li&gt;&lt;li&gt;RIG&lt;/li&gt;&lt;li&gt;WELL NO&lt;/li&gt;&lt;li&gt;EARLIEST DATE&lt;/li&gt;&lt;li&gt;LATEST DATE&lt;/li&gt;&lt;li&gt;EXPECTED JOB DAYS&lt;/li&gt;&lt;li&gt;TYPEOF SERVICE&lt;/li&gt;&lt;li&gt;WELL SECTION&lt;/li&gt;&lt;li&gt;ESTIMATED DEPTH&lt;/li&gt;&lt;li&gt;DHT EXPECTED&lt;/li&gt;&lt;li&gt;EXPECTED REVENUE&lt;/li&gt;&lt;li&gt;CONFIDENCE&lt;/li&gt;&lt;/ul&gt;" style="shape=hexagon;perimeter=hexagonPerimeter2;whiteSpace=wrap;html=1;fixedSize=1;align=left;" vertex="1" parent="1">
          <mxGeometry x="4332.5" y="2160" width="198" height="235" as="geometry" />
        </mxCell>
        <mxCell id="_S31PFsr-5n91dySAx23-64" value="" style="edgeStyle=orthogonalEdgeStyle;rounded=0;orthogonalLoop=1;jettySize=auto;html=1;" edge="1" parent="1" source="_S31PFsr-5n91dySAx23-61" target="_S31PFsr-5n91dySAx23-63">
          <mxGeometry relative="1" as="geometry" />
        </mxCell>
        <mxCell id="_S31PFsr-5n91dySAx23-61" value="" style="ellipse;whiteSpace=wrap;html=1;aspect=fixed;" vertex="1" parent="1">
          <mxGeometry x="5243" y="2070" width="40" height="40" as="geometry" />
        </mxCell>
        <mxCell id="_S31PFsr-5n91dySAx23-69" style="edgeStyle=orthogonalEdgeStyle;rounded=0;orthogonalLoop=1;jettySize=auto;html=1;entryX=0.5;entryY=0;entryDx=0;entryDy=0;" edge="1" parent="1" source="_S31PFsr-5n91dySAx23-63" target="_S31PFsr-5n91dySAx23-7">
          <mxGeometry relative="1" as="geometry">
            <Array as="points">
              <mxPoint x="5103" y="2210" />
              <mxPoint x="5103" y="2300" />
            </Array>
          </mxGeometry>
        </mxCell>
        <mxCell id="_S31PFsr-5n91dySAx23-70" style="edgeStyle=orthogonalEdgeStyle;rounded=0;orthogonalLoop=1;jettySize=auto;html=1;entryX=0.5;entryY=0;entryDx=0;entryDy=0;" edge="1" parent="1" source="_S31PFsr-5n91dySAx23-63" target="_S31PFsr-5n91dySAx23-65">
          <mxGeometry relative="1" as="geometry">
            <Array as="points">
              <mxPoint x="5418" y="2210" />
              <mxPoint x="5418" y="2280" />
            </Array>
          </mxGeometry>
        </mxCell>
        <mxCell id="_S31PFsr-5n91dySAx23-63" value="IS IT&amp;nbsp;&lt;div&gt;FORCASTED&amp;nbsp;&lt;span style=&quot;background-color: transparent; color: light-dark(rgb(0, 0, 0), rgb(255, 255, 255));&quot;&gt;&amp;nbsp;&lt;/span&gt;&lt;/div&gt;&lt;div&gt;OR&amp;nbsp;&lt;span style=&quot;background-color: transparent; color: light-dark(rgb(0, 0, 0), rgb(255, 255, 255));&quot;&gt;&amp;nbsp;&lt;/span&gt;&lt;/div&gt;&lt;div&gt;CALL OUT&amp;nbsp;&lt;/div&gt;" style="rhombus;whiteSpace=wrap;html=1;" vertex="1" parent="1">
          <mxGeometry x="5190" y="2139" width="145" height="142" as="geometry" />
        </mxCell>
        <mxCell id="_S31PFsr-5n91dySAx23-74" value="" style="edgeStyle=orthogonalEdgeStyle;rounded=0;orthogonalLoop=1;jettySize=auto;html=1;" edge="1" parent="1" source="_S31PFsr-5n91dySAx23-65" target="_S31PFsr-5n91dySAx23-73">
          <mxGeometry relative="1" as="geometry" />
        </mxCell>
        <mxCell id="_S31PFsr-5n91dySAx23-65" value="IMPORT CALLOUT INFORMATION" style="rounded=0;whiteSpace=wrap;html=1;gradientColor=default;gradientDirection=west;fillColor=none;" vertex="1" parent="1">
          <mxGeometry x="5330" y="2320" width="175" height="40" as="geometry" />
        </mxCell>
        <mxCell id="_S31PFsr-5n91dySAx23-72" style="edgeStyle=orthogonalEdgeStyle;rounded=0;orthogonalLoop=1;jettySize=auto;html=1;entryX=0;entryY=0.5;entryDx=0;entryDy=0;" edge="1" parent="1" source="_S31PFsr-5n91dySAx23-66" target="_S31PFsr-5n91dySAx23-65">
          <mxGeometry relative="1" as="geometry" />
        </mxCell>
        <mxCell id="_S31PFsr-5n91dySAx23-75" style="edgeStyle=orthogonalEdgeStyle;rounded=0;orthogonalLoop=1;jettySize=auto;html=1;entryX=0;entryY=0.5;entryDx=0;entryDy=0;" edge="1" parent="1" source="_S31PFsr-5n91dySAx23-66" target="_S31PFsr-5n91dySAx23-73">
          <mxGeometry relative="1" as="geometry">
            <Array as="points">
              <mxPoint x="5103" y="2560" />
              <mxPoint x="5290" y="2560" />
              <mxPoint x="5290" y="2461" />
            </Array>
          </mxGeometry>
        </mxCell>
        <mxCell id="_S31PFsr-5n91dySAx23-66" value="IS&amp;nbsp;&lt;div&gt;CALL OUT&amp;nbsp;&lt;/div&gt;&lt;div&gt;EXIST FOR THIS FORCAST&amp;nbsp;&lt;/div&gt;" style="rhombus;whiteSpace=wrap;html=1;" vertex="1" parent="1">
          <mxGeometry x="5037.5" y="2401" width="130" height="120" as="geometry" />
        </mxCell>
        <mxCell id="_S31PFsr-5n91dySAx23-73" value="CREATE SRO DOCUMENT&amp;nbsp;" style="rounded=0;whiteSpace=wrap;html=1;gradientColor=default;gradientDirection=west;fillColor=none;" vertex="1" parent="1">
          <mxGeometry x="5330" y="2441" width="175" height="40" as="geometry" />
        </mxCell>
        <mxCell id="_S31PFsr-5n91dySAx23-78" value="&lt;ol&gt;&lt;li&gt;&lt;span style=&quot;background-color: transparent; color: light-dark(rgb(0, 0, 0), rgb(255, 255, 255));&quot;&gt;General Information&lt;/span&gt;&lt;/li&gt;&lt;ol&gt;&lt;li&gt;&lt;span style=&quot;background-color: transparent; color: light-dark(rgb(0, 0, 0), rgb(255, 255, 255));&quot;&gt;customer&amp;nbsp;&amp;nbsp;&lt;/span&gt;&lt;/li&gt;&lt;li&gt;&lt;span style=&quot;background-color: transparent; color: light-dark(rgb(0, 0, 0), rgb(255, 255, 255));&quot;&gt;rig_number&amp;nbsp;&amp;nbsp;&lt;/span&gt;&lt;/li&gt;&lt;li&gt;&lt;span style=&quot;background-color: transparent; color: light-dark(rgb(0, 0, 0), rgb(255, 255, 255));&quot;&gt;well_name&amp;nbsp;&amp;nbsp;&lt;/span&gt;&lt;/li&gt;&lt;li&gt;&lt;span style=&quot;background-color: transparent; color: light-dark(rgb(0, 0, 0), rgb(255, 255, 255));&quot;&gt;hole_section&amp;nbsp;&amp;nbsp;&lt;/span&gt;&lt;/li&gt;&lt;li&gt;&lt;span style=&quot;background-color: transparent; color: light-dark(rgb(0, 0, 0), rgb(255, 255, 255));&quot;&gt;well_id&amp;nbsp;&amp;nbsp;&lt;/span&gt;&lt;/li&gt;&lt;li&gt;&lt;span style=&quot;background-color: transparent; color: light-dark(rgb(0, 0, 0), rgb(255, 255, 255));&quot;&gt;field_name&lt;br&gt;&lt;br&gt;&lt;br&gt;&lt;/span&gt;&lt;/li&gt;&lt;/ol&gt;&lt;li&gt;&lt;span style=&quot;background-color: transparent; color: light-dark(rgb(0, 0, 0), rgb(255, 255, 255));&quot;&gt;Type of Service Required&lt;/span&gt;&lt;/li&gt;&lt;ol&gt;&lt;li&gt;&lt;span style=&quot;background-color: transparent; color: light-dark(rgb(0, 0, 0), rgb(255, 255, 255));&quot;&gt;wireline_gyro_survey or memory_gyro_survey&lt;br&gt;&lt;br&gt;&lt;br&gt;&lt;/span&gt;&lt;/li&gt;&lt;/ol&gt;&lt;li&gt;&lt;span style=&quot;background-color: transparent; color: light-dark(rgb(0, 0, 0), rgb(255, 255, 255));&quot;&gt;Well Information&lt;/span&gt;&lt;/li&gt;&lt;ol&gt;&lt;li&gt;&lt;span style=&quot;background-color: transparent; color: light-dark(rgb(0, 0, 0), rgb(255, 255, 255));&quot;&gt;latitude_degrees&amp;nbsp;&amp;nbsp;&lt;/span&gt;&lt;/li&gt;&lt;li&gt;&lt;span style=&quot;background-color: transparent; color: light-dark(rgb(0, 0, 0), rgb(255, 255, 255));&quot;&gt;latitude_minutes&amp;nbsp;&amp;nbsp;&lt;/span&gt;&lt;/li&gt;&lt;li&gt;&lt;span style=&quot;background-color: transparent; color: light-dark(rgb(0, 0, 0), rgb(255, 255, 255));&quot;&gt;latitude_seconds&amp;nbsp;&amp;nbsp;&lt;/span&gt;&lt;/li&gt;&lt;li&gt;&lt;span style=&quot;background-color: transparent; color: light-dark(rgb(0, 0, 0), rgb(255, 255, 255));&quot;&gt;latitude_direction&amp;nbsp;&lt;/span&gt;&lt;/li&gt;&lt;li&gt;&lt;span style=&quot;background-color: transparent; color: light-dark(rgb(0, 0, 0), rgb(255, 255, 255));&quot;&gt;longitude_degrees&amp;nbsp;&amp;nbsp;&lt;/span&gt;&lt;/li&gt;&lt;li&gt;&lt;span style=&quot;background-color: transparent; color: light-dark(rgb(0, 0, 0), rgb(255, 255, 255));&quot;&gt;longitude_minutes&amp;nbsp;&amp;nbsp;&lt;/span&gt;&lt;/li&gt;&lt;li&gt;&lt;span style=&quot;background-color: transparent; color: light-dark(rgb(0, 0, 0), rgb(255, 255, 255));&quot;&gt;longitude_seconds&amp;nbsp;&amp;nbsp;&lt;/span&gt;&lt;/li&gt;&lt;li&gt;&lt;span style=&quot;background-color: transparent; color: light-dark(rgb(0, 0, 0), rgb(255, 255, 255));&quot;&gt;longitude_direction&lt;/span&gt;&lt;/li&gt;&lt;li&gt;&lt;span style=&quot;background-color: transparent; color: light-dark(rgb(0, 0, 0), rgb(255, 255, 255));&quot;&gt;northing_value&amp;nbsp;&amp;nbsp;&lt;/span&gt;&lt;/li&gt;&lt;li&gt;&lt;span style=&quot;background-color: transparent; color: light-dark(rgb(0, 0, 0), rgb(255, 255, 255));&quot;&gt;northing_unit&amp;nbsp;&amp;nbsp;&lt;/span&gt;&lt;/li&gt;&lt;li&gt;&lt;span style=&quot;background-color: transparent; color: light-dark(rgb(0, 0, 0), rgb(255, 255, 255));&quot;&gt;northing_direction&amp;nbsp;&lt;/span&gt;&lt;/li&gt;&lt;li&gt;&lt;span style=&quot;background-color: transparent; color: light-dark(rgb(0, 0, 0), rgb(255, 255, 255));&quot;&gt;easting_value&amp;nbsp;&amp;nbsp;&lt;/span&gt;&lt;/li&gt;&lt;li&gt;&lt;span style=&quot;background-color: transparent; color: light-dark(rgb(0, 0, 0), rgb(255, 255, 255));&quot;&gt;easting_unit&amp;nbsp;&amp;nbsp;&lt;/span&gt;&lt;/li&gt;&lt;li&gt;&lt;span style=&quot;background-color: transparent; color: light-dark(rgb(0, 0, 0), rgb(255, 255, 255));&quot;&gt;easting_direction&amp;nbsp;&amp;nbsp;&lt;/span&gt;&lt;/li&gt;&lt;li&gt;&lt;span style=&quot;background-color: transparent; color: light-dark(rgb(0, 0, 0), rgb(255, 255, 255));&quot;&gt;casing_size&amp;nbsp;&amp;nbsp;&lt;/span&gt;&lt;/li&gt;&lt;li&gt;&lt;span style=&quot;background-color: transparent; color: light-dark(rgb(0, 0, 0), rgb(255, 255, 255));&quot;&gt;casing_unit&lt;/span&gt;&lt;/li&gt;&lt;li&gt;&lt;span style=&quot;background-color: transparent; color: light-dark(rgb(0, 0, 0), rgb(255, 255, 255));&quot;&gt;ground_elevation&amp;nbsp;&amp;nbsp;&lt;/span&gt;&lt;/li&gt;&lt;li&gt;&lt;span style=&quot;background-color: transparent; color: light-dark(rgb(0, 0, 0), rgb(255, 255, 255));&quot;&gt;ground_elevation_unit&amp;nbsp;&amp;nbsp;&lt;/span&gt;&lt;/li&gt;&lt;li&gt;&lt;span style=&quot;background-color: transparent; color: light-dark(rgb(0, 0, 0), rgb(255, 255, 255));&quot;&gt;well_profile&amp;nbsp;&amp;nbsp;&lt;/span&gt;&lt;/li&gt;&lt;li&gt;&lt;span style=&quot;background-color: transparent; color: light-dark(rgb(0, 0, 0), rgb(255, 255, 255));&quot;&gt;drillpipe_size_value&amp;nbsp;&amp;nbsp;&lt;/span&gt;&lt;/li&gt;&lt;li&gt;&lt;span style=&quot;background-color: transparent; color: light-dark(rgb(0, 0, 0), rgb(255, 255, 255));&quot;&gt;drillpipe_size_unit&amp;nbsp;&amp;nbsp;&lt;/span&gt;&lt;/li&gt;&lt;li&gt;&lt;span style=&quot;background-color: transparent; color: light-dark(rgb(0, 0, 0), rgb(255, 255, 255));&quot;&gt;drillpipe_size_direction&amp;nbsp;&amp;nbsp;&lt;/span&gt;&lt;/li&gt;&lt;li&gt;&lt;span style=&quot;background-color: transparent; color: light-dark(rgb(0, 0, 0), rgb(255, 255, 255));&quot;&gt;rig_floor_elevation_value&amp;nbsp;&amp;nbsp;&lt;/span&gt;&lt;/li&gt;&lt;li&gt;&lt;span style=&quot;background-color: transparent; color: light-dark(rgb(0, 0, 0), rgb(255, 255, 255));&quot;&gt;rig_floor_elevation_direction&amp;nbsp;&amp;nbsp;&lt;/span&gt;&lt;/li&gt;&lt;li&gt;&lt;span style=&quot;background-color: transparent; color: light-dark(rgb(0, 0, 0), rgb(255, 255, 255));&quot;&gt;max_down_hole_temp_value&amp;nbsp;&amp;nbsp;&lt;/span&gt;&lt;/li&gt;&lt;li&gt;&lt;span style=&quot;background-color: transparent; color: light-dark(rgb(0, 0, 0), rgb(255, 255, 255));&quot;&gt;max_down_hole_temp_unit&amp;nbsp;&amp;nbsp;&lt;/span&gt;&amp;nbsp;&lt;/li&gt;&lt;li&gt;&lt;span style=&quot;background-color: transparent; color: light-dark(rgb(0, 0, 0), rgb(255, 255, 255));&quot;&gt;minimum_id&amp;nbsp;&amp;nbsp;&lt;/span&gt;&lt;/li&gt;&lt;li&gt;&lt;span style=&quot;background-color: transparent; color: light-dark(rgb(0, 0, 0), rgb(255, 255, 255));&quot;&gt;minimum_id_unit&amp;nbsp;&amp;nbsp;&lt;/span&gt;&lt;/li&gt;&lt;li&gt;&lt;span style=&quot;background-color: transparent; color: light-dark(rgb(0, 0, 0), rgb(255, 255, 255));&quot;&gt;maximum_inclination&amp;nbsp;&amp;nbsp;&lt;/span&gt;&lt;/li&gt;&lt;li&gt;&lt;span style=&quot;background-color: transparent; color: light-dark(rgb(0, 0, 0), rgb(255, 255, 255));&quot;&gt;maximum_inclination_unit&amp;nbsp;&amp;nbsp;&lt;/span&gt;&lt;/li&gt;&lt;li&gt;&lt;span style=&quot;background-color: transparent; color: light-dark(rgb(0, 0, 0), rgb(255, 255, 255));&quot;&gt;h2s_level&lt;br&gt;&lt;br&gt;&lt;br&gt;&lt;/span&gt;&lt;/li&gt;&lt;/ol&gt;&lt;li&gt;&lt;span style=&quot;background-color: transparent; color: light-dark(rgb(0, 0, 0), rgb(255, 255, 255));&quot;&gt;Survey Information&lt;/span&gt;&lt;/li&gt;&lt;ol&gt;&lt;li&gt;&lt;span style=&quot;background-color: transparent; color: light-dark(rgb(0, 0, 0), rgb(255, 255, 255));&quot;&gt;survey_start_depth&amp;nbsp;&amp;nbsp;&lt;/span&gt;&lt;/li&gt;&lt;li&gt;&lt;span style=&quot;background-color: transparent; color: light-dark(rgb(0, 0, 0), rgb(255, 255, 255));&quot;&gt;survey_start_depth_unit&amp;nbsp;&amp;nbsp;&lt;/span&gt;&lt;/li&gt;&lt;li&gt;&lt;span style=&quot;background-color: transparent; color: light-dark(rgb(0, 0, 0), rgb(255, 255, 255));&quot;&gt;survey_end_depth&amp;nbsp;&amp;nbsp;&lt;/span&gt;&lt;/li&gt;&lt;li&gt;&lt;span style=&quot;background-color: transparent; color: light-dark(rgb(0, 0, 0), rgb(255, 255, 255));&quot;&gt;survey_end_depth_unit&amp;nbsp;&amp;nbsp;&lt;/span&gt;&lt;/li&gt;&lt;li&gt;&lt;span style=&quot;background-color: transparent; color: light-dark(rgb(0, 0, 0), rgb(255, 255, 255));&quot;&gt;survey_interval&amp;nbsp;&amp;nbsp;&lt;/span&gt;&lt;/li&gt;&lt;li&gt;&lt;span style=&quot;background-color: transparent; color: light-dark(rgb(0, 0, 0), rgb(255, 255, 255));&quot;&gt;survey_interval_unit&amp;nbsp;&amp;nbsp;&lt;/span&gt;&lt;/li&gt;&lt;li&gt;&lt;span style=&quot;background-color: transparent; color: light-dark(rgb(0, 0, 0), rgb(255, 255, 255));&quot;&gt;[whipstock_orientation_depth,&amp;nbsp;&lt;/span&gt;whipstock_orientation_depth_unit] &lt;br&gt;or &lt;br&gt;[motor_orientation_depth,&amp;nbsp;&lt;span style=&quot;background-color: transparent; color: light-dark(rgb(0, 0, 0), rgb(255, 255, 255));&quot;&gt;motor_orientation_depth_unit]&amp;nbsp;&lt;br&gt;&lt;/span&gt;or &lt;br&gt;[ubho_sub_size,&amp;nbsp;&amp;nbsp;&lt;span style=&quot;background-color: transparent; color: light-dark(rgb(0, 0, 0), rgb(255, 255, 255));&quot;&gt;connection_size,date_required_on_site]&amp;nbsp;&amp;nbsp;&lt;br&gt;&lt;/span&gt;or&amp;nbsp;&lt;br&gt;&lt;span style=&quot;background-color: transparent; color: light-dark(rgb(0, 0, 0), rgb(255, 255, 255));&quot;&gt;[side_entry_sub_size,&amp;nbsp;&lt;/span&gt;&lt;span style=&quot;background-color: transparent; color: light-dark(rgb(0, 0, 0), rgb(255, 255, 255));&quot;&gt;connection_size,&amp;nbsp;&lt;/span&gt;&lt;span style=&quot;background-color: transparent; color: light-dark(rgb(0, 0, 0), rgb(255, 255, 255));&quot;&gt;date_required_on_site]&amp;nbsp;&lt;br&gt;&lt;/span&gt;&lt;span style=&quot;background-color: transparent; color: light-dark(rgb(0, 0, 0), rgb(255, 255, 255));&quot;&gt;or&amp;nbsp;&lt;br&gt;&lt;/span&gt;&lt;span style=&quot;background-color: transparent; color: light-dark(rgb(0, 0, 0), rgb(255, 255, 255));&quot;&gt;[equipment_required_on_site_date, equipment_required_on_site_time]&amp;nbsp;&lt;br&gt;&lt;/span&gt;&lt;span style=&quot;background-color: transparent; color: light-dark(rgb(0, 0, 0), rgb(255, 255, 255));&quot;&gt;or &lt;br&gt;[crew_required_on_site_date,&amp;nbsp;&lt;/span&gt;&lt;span style=&quot;background-color: transparent; color: light-dark(rgb(0, 0, 0), rgb(255, 255, 255));&quot;&gt;crew_required_on_site_time]&amp;nbsp;&lt;br&gt;&lt;/span&gt;&lt;br&gt;&amp;nbsp;&lt;/li&gt;&lt;/ol&gt;&lt;li&gt;&lt;span style=&quot;background-color: transparent; color: light-dark(rgb(0, 0, 0), rgb(255, 255, 255));&quot;&gt;Contact Information &amp;amp; Comments&lt;/span&gt;&lt;/li&gt;&lt;ol&gt;&lt;li&gt;&lt;span style=&quot;background-color: transparent; color: light-dark(rgb(0, 0, 0), rgb(255, 255, 255));&quot;&gt;callout_completed_by&amp;nbsp;&amp;nbsp;&lt;/span&gt;&lt;/li&gt;&lt;li&gt;&lt;span style=&quot;background-color: transparent; color: light-dark(rgb(0, 0, 0), rgb(255, 255, 255));&quot;&gt;designation&amp;nbsp;&amp;nbsp;&lt;/span&gt;&lt;/li&gt;&lt;li&gt;&lt;span style=&quot;background-color: transparent; color: light-dark(rgb(0, 0, 0), rgb(255, 255, 255));&quot;&gt;contact_number&amp;nbsp;&amp;nbsp;&lt;/span&gt;&lt;/li&gt;&lt;li&gt;&lt;span style=&quot;background-color: transparent; color: light-dark(rgb(0, 0, 0), rgb(255, 255, 255));&quot;&gt;comments&amp;nbsp;&lt;/span&gt;&lt;/li&gt;&lt;/ol&gt;&lt;/ol&gt;" style="shape=note;whiteSpace=wrap;html=1;backgroundOutline=1;darkOpacity=0.05;align=left;" vertex="1" parent="1">
          <mxGeometry x="5930" y="2200" width="480" height="1070" as="geometry" />
        </mxCell>
        <mxCell id="_S31PFsr-5n91dySAx23-79" value="&lt;ol&gt;&lt;li&gt;&lt;span style=&quot;background-color: transparent; color: light-dark(rgb(0, 0, 0), rgb(255, 255, 255));&quot;&gt;General Information&lt;/span&gt;&lt;/li&gt;&lt;ol&gt;&lt;li&gt;&lt;span style=&quot;background-color: transparent; color: light-dark(rgb(0, 0, 0), rgb(255, 255, 255));&quot;&gt;customer&amp;nbsp;&amp;nbsp;&lt;/span&gt;&lt;/li&gt;&lt;li&gt;&lt;span style=&quot;background-color: transparent; color: light-dark(rgb(0, 0, 0), rgb(255, 255, 255));&quot;&gt;rig_number&amp;nbsp;&amp;nbsp;&lt;/span&gt;&lt;/li&gt;&lt;li&gt;&lt;span style=&quot;background-color: transparent; color: light-dark(rgb(0, 0, 0), rgb(255, 255, 255));&quot;&gt;well_name&amp;nbsp;&amp;nbsp;&lt;/span&gt;&lt;/li&gt;&lt;li&gt;&lt;span style=&quot;background-color: transparent; color: light-dark(rgb(0, 0, 0), rgb(255, 255, 255));&quot;&gt;hole_section&amp;nbsp;&amp;nbsp;&lt;/span&gt;&lt;/li&gt;&lt;li&gt;&lt;span style=&quot;background-color: transparent; color: light-dark(rgb(0, 0, 0), rgb(255, 255, 255));&quot;&gt;well_id&amp;nbsp;&amp;nbsp;&lt;/span&gt;&lt;/li&gt;&lt;li&gt;&lt;span style=&quot;background-color: transparent; color: light-dark(rgb(0, 0, 0), rgb(255, 255, 255));&quot;&gt;field_name&lt;/span&gt;&lt;/li&gt;&lt;li&gt;cluster&amp;nbsp;&lt;/li&gt;&lt;li&gt;well_number&lt;/li&gt;&lt;li&gt;earliest_date&amp;nbsp;&lt;/li&gt;&lt;li&gt;latest_date&amp;nbsp;&lt;/li&gt;&lt;li&gt;expected_job_days&lt;/li&gt;&lt;li&gt;estimated_depth&amp;nbsp;&lt;/li&gt;&lt;li&gt;dht_expected&amp;nbsp;&lt;/li&gt;&lt;li&gt;expected_revenue&amp;nbsp;&lt;/li&gt;&lt;li&gt;confidence&lt;br&gt;&lt;/li&gt;&lt;/ol&gt;&lt;/ol&gt;" style="shape=note;whiteSpace=wrap;html=1;backgroundOutline=1;darkOpacity=0.05;align=left;" vertex="1" parent="1">
          <mxGeometry x="4750" y="2205" width="220" height="270" as="geometry" />
        </mxCell>
      </root>
    </mxGraphModel>
  </diagram>
</mxfile>
